<svg width="109" height="166" viewBox="0 0 109 166" fill="none" xmlns="http://www.w3.org/2000/svg">
<path d="M106.7 43.7892C104.35 34.7092 99.32 26.6992 93.76 23.1392C89.41 13.5192 80.3 5.96922 68.61 2.36922C52.57 -2.57078 34.46 0.289216 18.96 10.2492C-9.46 28.4992 2.17 68.2892 3.33 72.0592L3.79 79.7092C3.83 80.5592 4.39 81.2692 5.19 81.5592L9.15 82.9592C9.75 83.1692 10.44 83.0892 11 82.7292C11.54 82.3492 11.88 81.7492 11.92 81.0992L12.69 66.9492C12.79 65.2192 13.36 63.5292 14.34 62.0692C16.67 58.6292 21.9 52.0892 30.78 47.0892C45.45 38.8192 63.7 37.8792 85.08 44.3192C84.68 63.2792 93.83 81.0292 94.31 81.9492C94.69 82.6592 95.39 83.0792 96.14 83.0792C96.39 83.0792 96.62 83.0392 96.85 82.9492L100.81 81.5492C101.31 81.3592 101.73 81.0092 101.96 80.5292C109.78 65.4192 108.87 52.2092 106.7 43.7892ZM98.64 77.8992L97.22 78.4192C94.39 72.3192 85.22 50.1892 91.3 31.7692L87.34 30.4592C86.3 33.6292 85.65 36.8392 85.32 40.0692C63.23 33.6092 44.19 34.7592 28.73 43.4892C19.11 48.8892 13.42 55.9992 10.88 59.7492C9.48 61.8292 8.67 64.2492 8.53 66.7292L7.9 78.1092L7.48 71.5492C7.48 71.3592 7.44 71.1692 7.38 71.0092C7.25 70.6092 -5.73 31.0692 21.21 13.7492C35.67 4.45922 52.5 1.76922 67.38 6.34922C78.13 9.65922 86.45 16.5992 90.2 25.4092C90.37 25.8292 90.68 26.1592 91.08 26.3892C98.51 30.6592 111.49 52.1892 98.64 77.8992ZM102.62 85.3792C102.18 84.9392 101.58 84.7092 100.97 84.7492L95.97 85.1692C95.16 85.2292 94.45 85.7692 94.18 86.5492C94.12 86.7392 87.78 104.319 80.72 113.659C77.16 109.829 73.41 108.119 70.36 107.429C65.19 106.259 59.67 107.509 56.28 110.639C55.76 111.099 55.34 111.619 54.95 112.159C54.57 111.619 54.14 111.099 53.64 110.639C50.22 107.509 44.7 106.259 39.53 107.429C36.28 108.179 32.18 110.079 28.38 114.529C20.98 104.759 12.32 86.1492 12.21 85.9592C11.94 85.3792 11.42 84.9392 10.77 84.7892L6.33 83.8092C5.64 83.6592 4.93 83.8492 4.43 84.3292C3.93 84.8092 3.7 85.4992 3.8 86.1792L10.53 127.329C10.55 127.499 10.59 127.639 10.66 127.789C10.81 128.119 14.24 136.479 27.49 151.149C39.49 164.439 51.01 165.379 53.93 165.379C54.35 165.379 54.6 165.359 54.64 165.359L54.72 165.339C55.28 165.399 68.35 166.339 82.04 151.149C95.29 136.479 98.75 128.129 98.9 127.789C98.96 127.599 99 127.409 99.03 127.229L103.2 87.0392C103.26 86.4392 103.05 85.8192 102.62 85.3792ZM59.09 113.689C60.61 112.289 63.3 111.149 66.47 111.149C67.43 111.149 68.41 111.249 69.43 111.479C72.66 112.209 76.93 114.419 80.62 120.359C76.31 118.629 70.31 117.479 64.45 120.759C62.76 121.699 59.72 122.909 58.1 120.659C56.84 118.919 56.94 115.649 59.09 113.689ZM40.46 111.479C44.86 110.479 48.82 111.879 50.79 113.689C52.94 115.649 53.04 118.919 51.79 120.649C50.16 122.899 47.12 121.689 45.44 120.749C42.73 119.229 39.98 118.669 37.38 118.669C34.38 118.669 31.59 119.419 29.27 120.359C32.98 114.419 37.23 112.209 40.46 111.479ZM94.93 126.469C94.26 127.929 90.41 135.699 78.97 148.369C66.76 161.909 55.53 161.249 54.91 161.199H54.49C54.01 161.219 42.82 161.909 30.61 148.369C19 135.509 15.19 127.699 14.61 126.429L8.42 88.5392L8.88 88.6392C10.84 92.7892 18.84 109.249 25.84 118.019C24.65 119.919 23.53 122.079 22.51 124.669C22.16 125.549 22.43 126.549 23.18 127.109C23.56 127.379 23.99 127.529 24.43 127.529C24.89 127.529 25.35 127.379 25.72 127.089C25.82 127.009 35.22 119.819 43.43 124.379C48.91 127.439 52.91 125.899 54.95 123.359C56.99 125.899 60.99 127.439 66.47 124.379C74.68 119.819 84.1 127.009 84.18 127.089C84.56 127.379 85.01 127.529 85.47 127.529C85.91 127.529 86.35 127.379 86.72 127.109C87.47 126.549 87.74 125.549 87.41 124.669C86.18 121.609 84.83 119.089 83.39 116.979C90.08 108.649 95.97 93.6892 97.64 89.2092L98.81 89.1092L94.93 126.469Z" fill="#AB8E6C"/>
</svg>
