<svg width="91" height="166" viewBox="0 0 91 166" fill="none" xmlns="http://www.w3.org/2000/svg">
<path d="M45.47 46.09C30.95 46.09 19.15 59.54 19.15 76.05C19.15 92.58 30.95 106.01 45.47 106.01C59.99 106.01 71.82 92.58 71.82 76.05C71.82 59.54 60 46.09 45.47 46.09ZM45.47 100.65C33.91 100.65 24.5 89.6 24.5 76.04C24.5 62.48 33.92 51.43 45.47 51.43C57.05 51.43 66.47 62.48 66.47 76.04C66.47 89.6 57.05 100.65 45.47 100.65ZM45.47 46.09C30.95 46.09 19.15 59.54 19.15 76.05C19.15 92.58 30.95 106.01 45.47 106.01C59.99 106.01 71.82 92.58 71.82 76.05C71.82 59.54 60 46.09 45.47 46.09ZM45.47 100.65C33.91 100.65 24.5 89.6 24.5 76.04C24.5 62.48 33.92 51.43 45.47 51.43C57.05 51.43 66.47 62.48 66.47 76.04C66.47 89.6 57.05 100.65 45.47 100.65ZM90.94 2.67C90.94 1.2 89.77 0 88.27 0H2.67C1.2 0 0 1.2 0 2.67V17.81H0.37C0.13 18.26 -0.03 18.75 0.02 19.28L11.12 128.68V152C11.12 159.38 17.11 165.37 24.49 165.37H66.46C73.84 165.37 79.83 159.38 79.83 152V128.68L90.93 19.28C90.98 18.74 90.82 18.26 90.58 17.81H90.93V2.67H90.94ZM74.49 152.01C74.49 156.42 70.88 160.03 66.47 160.03H24.5C20.06 160.03 16.48 156.42 16.48 152.01V142.33H74.5V152.01H74.49ZM74.49 136.98H16.48V131.23H74.5V136.98H74.49ZM74.79 125.37H16.16L5.64 21.69H85.32L74.79 125.37ZM85.6 16.34H5.35V5.35H85.6V16.34ZM45.47 106C60 106 71.82 92.58 71.82 76.05C71.82 59.55 60 46.09 45.47 46.09C30.94 46.09 19.15 59.54 19.15 76.05C19.15 92.58 30.95 106 45.47 106ZM45.47 51.44C57.05 51.44 66.47 62.49 66.47 76.05C66.47 89.61 57.05 100.66 45.47 100.66C33.91 100.66 24.5 89.61 24.5 76.05C24.5 62.49 33.92 51.44 45.47 51.44ZM45.47 46.09C30.95 46.09 19.15 59.54 19.15 76.05C19.15 92.58 30.95 106.01 45.47 106.01C59.99 106.01 71.82 92.58 71.82 76.05C71.82 59.54 60 46.09 45.47 46.09ZM45.47 100.65C33.91 100.65 24.5 89.6 24.5 76.04C24.5 62.48 33.92 51.43 45.47 51.43C57.05 51.43 66.47 62.48 66.47 76.04C66.47 89.6 57.05 100.65 45.47 100.65ZM45.47 46.09C30.95 46.09 19.15 59.54 19.15 76.05C19.15 92.58 30.95 106.01 45.47 106.01C59.99 106.01 71.82 92.58 71.82 76.05C71.82 59.54 60 46.09 45.47 46.09ZM45.47 100.65C33.91 100.65 24.5 89.6 24.5 76.04C24.5 62.48 33.92 51.43 45.47 51.43C57.05 51.43 66.47 62.48 66.47 76.04C66.47 89.6 57.05 100.65 45.47 100.65Z" fill="#AB8E6C"/>
</svg>
