<svg width="86" height="166" viewBox="0 0 86 166" fill="none" xmlns="http://www.w3.org/2000/svg">
<path d="M76.73 0H9.24C4.14 0 0 4.14 0 9.24C0 31.03 0 31.03 0 31.03C0 36.11 4.14 40.27 9.24 40.27C22.69 40.27 22.69 40.27 22.69 40.27C23.27 46.02 27.77 50.92 34.1 53.35C34.1 68.55 34.1 68.55 34.1 68.55C30.54 71.07 28.21 75.23 28.21 79.9C28.21 151.43 28.21 151.43 28.21 151.43C28.21 159.12 34.47 165.39 42.17 165.39C49.86 165.39 56.13 159.13 56.13 151.43C56.13 79.9 56.13 79.9 56.13 79.9C56.13 75.23 53.8 71.07 50.24 68.55C50.24 53.9 50.24 53.9 50.24 53.9C57.43 51.75 62.67 46.51 63.29 40.27C76.74 40.27 76.74 40.27 76.74 40.27C81.85 40.27 85.98 36.11 85.98 31.03C85.98 9.24 85.98 9.24 85.98 9.24C85.97 4.14 81.84 0 76.73 0ZM51.5 79.9V151.43C51.5 156.58 47.32 160.76 42.17 160.76C37.02 160.76 32.84 156.58 32.84 151.43C32.84 79.9 32.84 79.9 32.84 79.9C32.84 74.77 37.02 70.57 42.17 70.57C47.32 70.56 51.5 74.77 51.5 79.9ZM38.72 66.4V54.6C40.08 54.83 41.52 54.97 42.99 54.97C43.87 54.97 44.75 54.9 45.6 54.81C45.6 66.41 45.6 66.41 45.6 66.41C44.49 66.13 43.36 65.95 42.16 65.95C40.96 65.94 39.83 66.13 38.72 66.4ZM43 50.35C34.89 50.35 28.21 45.91 27.34 40.28C58.65 40.28 58.65 40.28 58.65 40.28C57.76 45.91 51.09 50.35 43 50.35ZM81.35 31.03C81.35 33.57 79.27 35.65 76.73 35.65C9.24001 35.65 9.24 35.65 9.24 35.65C6.7 35.65 4.62 33.57 4.62 31.03C4.62 9.24 4.62 9.24 4.62 9.24C4.62 6.67 6.7 4.62 9.24 4.62C76.73 4.62 76.73 4.62 76.73 4.62C79.27 4.62 81.35 6.68 81.35 9.24C81.35 31.03 81.35 31.03 81.35 31.03ZM10.65 14.37H75.34V9.75H10.65V14.37ZM10.65 30.5H75.34V25.88H10.65V30.5ZM10.65 22.43H75.34V17.81H10.65V22.43Z" fill="#AB8E6C"/>
</svg>
