<svg width="166" height="153" viewBox="0 0 166 153" fill="none" xmlns="http://www.w3.org/2000/svg">
<path d="M40.06 134.327C38.7 130.927 34.81 129.257 31.41 130.587C28.01 131.947 26.32 135.837 27.67 139.237C28.69 141.847 31.23 143.437 33.86 143.437C34.68 143.437 35.5 143.307 36.32 142.977C39.72 141.617 41.41 137.757 40.06 134.327ZM34.43 138.217C33.64 138.527 32.74 138.137 32.43 137.347C32.12 136.577 32.51 135.687 33.3 135.347C34.09 135.037 34.99 135.427 35.3 136.217C35.61 137.007 35.22 137.907 34.43 138.217ZM40.06 134.327C38.7 130.927 34.81 129.257 31.41 130.587C28.01 131.947 26.32 135.837 27.67 139.237C28.69 141.847 31.23 143.437 33.86 143.437C34.68 143.437 35.5 143.307 36.32 142.977C39.72 141.617 41.41 137.757 40.06 134.327ZM34.43 138.217C33.64 138.527 32.74 138.137 32.43 137.347C32.12 136.577 32.51 135.687 33.3 135.347C34.09 135.037 34.99 135.427 35.3 136.217C35.61 137.007 35.22 137.907 34.43 138.217ZM164.45 85.1071C163.12 81.8071 160.61 79.1971 157.33 77.7871C154.05 76.3571 150.42 76.3071 147.12 77.6071L32.33 123.037L42.7 106.277L56.19 108.627C56.8 108.727 57.39 108.777 57.98 108.777C61.49 108.777 64.76 106.987 66.68 103.917L116.31 20.8871C118.51 17.3271 118.33 12.8271 115.85 9.44707L111.17 3.12707C109.66 1.07707 107.28 -0.102932 104.69 0.00706778C102.13 0.107068 99.8 1.46707 98.44 3.66707L39.24 102.127L24.34 126.187L22.47 126.927C15.64 129.637 12.26 137.417 14.97 144.257C15.15 144.717 15.41 145.127 15.64 145.567C12.9 146.487 10.67 146.467 9.04 145.517C6.1 143.777 5.2 139.097 5.1 137.427L0 137.707C0 138.067 0.51 146.437 6.42 149.917C8.08 150.887 9.93 151.347 11.97 151.347C14.12 151.347 16.47 150.787 19.06 149.707C19.98 150.447 20.95 151.117 22.08 151.597C23.77 152.337 25.56 152.697 27.38 152.697C29.04 152.697 30.71 152.387 32.29 151.747L156.94 102.427C163.78 99.7471 167.16 91.9671 164.45 85.1071ZM111.34 11.9771L111.72 12.4871C112.95 14.1771 113.05 16.4271 111.95 18.2171C111.92 18.2171 111.92 18.2471 111.92 18.2471L62.29 101.247C61.19 103.017 59.12 103.957 57.07 103.577L56.35 103.477L111.34 11.9771ZM102.82 6.32707C103.28 5.60707 104.02 5.14707 104.89 5.12707C105.71 5.09707 106.53 5.45707 107.04 6.17707L109.7 9.75707L53.67 102.997L45.53 101.587L102.82 6.32707ZM155.05 97.6771L30.41 146.997C28.39 147.817 26.14 147.787 24.11 146.917C22.09 146.017 20.53 144.437 19.73 142.387C18.07 138.167 20.14 133.377 24.36 131.687L148.98 82.3671C149.98 81.9871 151 81.8071 152.03 81.8071C153.13 81.8071 154.23 82.0371 155.28 82.4771C157.3 83.3471 158.86 84.9571 159.68 87.0071C161.35 91.2271 159.28 96.0071 155.05 97.6771ZM31.41 130.587C28.01 131.947 26.32 135.837 27.67 139.237C28.69 141.847 31.23 143.437 33.86 143.437C34.68 143.437 35.5 143.307 36.32 142.977C39.72 141.617 41.41 137.757 40.06 134.327C38.7 130.917 34.81 129.257 31.41 130.587ZM34.43 138.217C33.64 138.527 32.74 138.137 32.43 137.347C32.12 136.577 32.51 135.687 33.3 135.347C34.09 135.037 34.99 135.427 35.3 136.217C35.61 137.007 35.22 137.907 34.43 138.217ZM40.06 134.327C38.7 130.927 34.81 129.257 31.41 130.587C28.01 131.947 26.32 135.837 27.67 139.237C28.69 141.847 31.23 143.437 33.86 143.437C34.68 143.437 35.5 143.307 36.32 142.977C39.72 141.617 41.41 137.757 40.06 134.327ZM34.43 138.217C33.64 138.527 32.74 138.137 32.43 137.347C32.12 136.577 32.51 135.687 33.3 135.347C34.09 135.037 34.99 135.427 35.3 136.217C35.61 137.007 35.22 137.907 34.43 138.217ZM40.06 134.327C38.7 130.927 34.81 129.257 31.41 130.587C28.01 131.947 26.32 135.837 27.67 139.237C28.69 141.847 31.23 143.437 33.86 143.437C34.68 143.437 35.5 143.307 36.32 142.977C39.72 141.617 41.41 137.757 40.06 134.327ZM34.43 138.217C33.64 138.527 32.74 138.137 32.43 137.347C32.12 136.577 32.51 135.687 33.3 135.347C34.09 135.037 34.99 135.427 35.3 136.217C35.61 137.007 35.22 137.907 34.43 138.217Z" fill="#AB8E6C"/>
</svg>
