<svg width="82" height="166" viewBox="0 0 82 166" fill="none" xmlns="http://www.w3.org/2000/svg">
<path d="M32.97 53.78C27.74 53.78 23.5 58.02 23.5 63.25V74.93C23.5 80.16 27.74 84.4 32.97 84.4C38.2 84.4 42.44 80.16 42.44 74.93V63.25C42.44 58.02 38.2 53.78 32.97 53.78ZM37.85 74.93C37.85 77.61 35.65 79.82 32.96 79.82C30.28 79.82 28.07 77.62 28.07 74.93V63.25C28.07 60.57 30.27 58.36 32.96 58.36C35.64 58.36 37.85 60.56 37.85 63.25V74.93ZM32.97 53.78C27.74 53.78 23.5 58.02 23.5 63.25V74.93C23.5 80.16 27.74 84.4 32.97 84.4C38.2 84.4 42.44 80.16 42.44 74.93V63.25C42.44 58.02 38.2 53.78 32.97 53.78ZM37.85 74.93C37.85 77.61 35.65 79.82 32.96 79.82C30.28 79.82 28.07 77.62 28.07 74.93V63.25C28.07 60.57 30.27 58.36 32.96 58.36C35.64 58.36 37.85 60.56 37.85 63.25V74.93ZM32.97 53.78C27.74 53.78 23.5 58.02 23.5 63.25V74.93C23.5 80.16 27.74 84.4 32.97 84.4C38.2 84.4 42.44 80.16 42.44 74.93V63.25C42.44 58.02 38.2 53.78 32.97 53.78ZM37.85 74.93C37.85 77.61 35.65 79.82 32.96 79.82C30.28 79.82 28.07 77.62 28.07 74.93V63.25C28.07 60.57 30.27 58.36 32.96 58.36C35.64 58.36 37.85 60.56 37.85 63.25V74.93ZM76.65 58.8V140.11C76.65 151.51 67.36 160.8 55.96 160.8C45.87 160.8 37.47 153.55 35.63 143.98H40.15C41.41 143.98 42.44 142.95 42.44 141.69V132.12C53.61 128.2 61.67 117.57 61.67 105.07V49.23H63.67C64.93 49.23 65.96 48.22 65.96 46.94V22.12C65.96 20.86 64.93 19.83 63.67 19.83H61.67V11.04C61.67 9.76 60.64 8.75 59.38 8.75H55.64V0H51.05V8.74H47.49V0H42.9V8.74H39.34V0H34.75V8.74H31.17V0H26.58V8.74H23.02V0H18.43V8.74H14.87V0H10.3V8.74H6.56C5.3 8.74 4.27 9.75 4.27 11.03V19.82H2.29C1.01 19.82 0 20.85 0 22.12V46.94C0 48.22 1.01 49.23 2.29 49.23H4.26V105.07C4.26 117.57 12.31 128.2 23.49 132.12V141.69C23.49 142.95 24.52 143.98 25.78 143.98H30.99C32.87 156.07 43.33 165.38 55.95 165.38C69.9 165.38 81.23 154.02 81.23 140.1V58.8H76.65ZM8.86 13.33H57.08V19.82H8.86V13.33ZM4.59 24.41H61.37V44.64H4.59V24.41ZM8.86 105.07V49.23H57.08V105.07C57.08 118.35 46.25 129.18 32.97 129.18C19.68 129.18 8.86 118.36 8.86 105.07ZM28.08 139.39V133.31C29.66 133.59 31.29 133.77 32.97 133.77C34.64 133.77 36.27 133.59 37.86 133.31V139.39H28.08ZM42.44 74.93V63.25C42.44 58.02 38.2 53.78 32.97 53.78C27.74 53.78 23.5 58.02 23.5 63.25V74.93C23.5 80.16 27.74 84.4 32.97 84.4C38.2 84.4 42.44 80.16 42.44 74.93ZM28.08 74.93V63.25C28.08 60.57 30.28 58.36 32.97 58.36C35.65 58.36 37.86 60.56 37.86 63.25V74.93C37.86 77.61 35.66 79.82 32.97 79.82C30.28 79.81 28.08 77.61 28.08 74.93ZM32.97 53.78C27.74 53.78 23.5 58.02 23.5 63.25V74.93C23.5 80.16 27.74 84.4 32.97 84.4C38.2 84.4 42.44 80.16 42.44 74.93V63.25C42.44 58.02 38.2 53.78 32.97 53.78ZM37.85 74.93C37.85 77.61 35.65 79.82 32.96 79.82C30.28 79.82 28.07 77.62 28.07 74.93V63.25C28.07 60.57 30.27 58.36 32.96 58.36C35.64 58.36 37.85 60.56 37.85 63.25V74.93Z" fill="#AB8E6C"/>
</svg>
