<svg width="117" height="166" viewBox="0 0 117 166" fill="none" xmlns="http://www.w3.org/2000/svg">
<path d="M116.126 74.8164C115.836 70.9364 113.376 68.1264 111.186 65.6364C109.116 63.2764 107.166 61.0364 106.926 58.0264L106.906 57.3264C106.766 54.1964 106.326 44.7064 103.706 35.8964C101.756 21.0164 93.4462 10.0764 79.6762 4.30641C59.1862 -4.29359 32.4562 1.05641 19.4262 10.9564C3.03622 23.3964 -3.53378 42.4264 1.83622 61.8564L6.48622 60.5564C4.17622 52.1764 1.06622 30.9364 22.3362 14.8064C34.2962 5.69641 58.9062 0.806414 77.7862 8.75641C85.7762 12.1064 95.6262 19.1564 98.5162 33.8964L65.3562 32.4764C64.4162 32.4264 63.5262 32.9564 63.0962 33.7964C62.6662 34.6664 62.7862 35.6764 63.3862 36.4164C68.9962 43.2764 75.1362 52.0164 75.3062 53.9264C74.9962 54.6964 72.2962 56.0264 70.8262 56.7464C67.3862 58.4564 63.8162 60.2164 64.0562 63.6364L68.8762 63.2764C68.8762 63.4464 68.8562 63.5664 68.8262 63.5864C69.1862 62.9364 71.5462 61.7564 72.9662 61.0564C76.3162 59.3964 80.1162 57.5364 80.1162 54.0464C80.1162 50.7264 74.6762 43.0364 70.4162 37.5064L99.5062 38.7564C101.576 46.5864 101.966 54.7264 102.086 57.5364C102.106 57.9464 102.106 58.2364 102.136 58.4064C102.496 63.0064 105.196 66.0864 107.576 68.8064C109.506 70.9964 111.166 72.8764 111.336 75.1864C111.476 77.2064 111.096 77.2864 108.856 77.6664C107.286 77.9264 103.606 78.5564 103.916 82.5064C103.966 83.2064 104.396 88.0964 104.666 91.2764L77.4762 89.6964L67.7962 74.7664L63.7462 77.3864L74.0962 93.3264C74.5062 93.9764 75.2062 94.3664 75.9762 94.4064L103.096 96.0164L101.696 98.2564C101.186 99.0464 101.186 100.066 101.696 100.836L104.776 105.576C102.316 110.706 99.9562 116.896 101.166 119.666C101.716 120.946 102.226 122.776 101.386 124.316C100.566 125.856 98.5162 126.966 95.6262 127.466C91.2162 128.166 69.3062 119.206 54.2262 112.196L56.1762 86.5964L51.3562 86.2364V86.3064L51.3062 86.2364L50.2662 84.1164L45.8062 75.2564L63.8162 73.4264L67.9362 72.9964L80.7762 71.6964L80.2962 66.9064L68.3962 68.1064L63.9162 68.5664L43.4962 70.6664L37.3262 58.2964C42.1462 54.6164 43.8562 47.9164 41.0362 42.2864C37.8562 35.9264 30.0762 33.3564 23.7262 36.5264C17.3662 39.7264 14.7962 47.4864 17.9662 53.8364C20.2262 58.3364 24.8062 60.9664 29.5262 60.9664C30.6862 60.9664 31.8662 60.7764 33.0162 60.4564L38.3862 71.1964L26.4662 72.3964C24.8562 67.0064 19.8162 63.1764 14.0862 63.1764C13.6562 63.1764 13.2162 63.1964 12.7862 63.2464C5.70622 63.9764 0.556223 70.3364 1.27622 77.4164C1.95622 84.0364 7.56622 88.9964 14.1162 88.9964C14.5462 88.9964 14.9862 88.9764 15.4162 88.9264C21.6762 88.2964 26.4462 83.2464 26.9462 77.1964L40.6962 75.7964L50.1562 94.6764L50.7362 94.3664L49.2962 113.486C49.2262 114.496 49.7562 115.436 50.6662 115.846C55.2162 117.986 73.0862 126.276 85.5562 130.196C68.3162 143.636 72.9462 165.146 72.9962 165.386L77.6962 164.306C77.5062 163.436 73.2162 143.066 91.6662 131.846C93.0862 132.136 94.3362 132.306 95.3262 132.306C95.7362 132.306 96.1162 132.286 96.4562 132.236C102.066 131.276 104.546 128.646 105.636 126.626C107.006 124.076 106.986 120.916 105.656 117.906C105.436 116.626 107.346 111.306 109.726 106.496C110.086 105.746 110.036 104.836 109.586 104.116L106.596 99.5364L109.346 95.1564C109.636 94.6964 109.736 94.1664 109.686 93.6664H109.706C109.706 93.6664 108.956 84.9464 108.766 82.6164C109.056 82.5464 109.416 82.4964 109.686 82.4464C111.766 82.0564 116.626 81.2164 116.126 74.8164ZM33.1362 55.2864C29.1362 57.3064 24.2762 55.6764 22.2762 51.6964C20.2762 47.6964 21.8862 42.8364 25.8862 40.8364C27.0462 40.2564 28.2662 39.9664 29.4962 39.9664C32.4562 39.9664 35.3262 41.6064 36.7162 44.4464C38.7262 48.4164 37.1162 53.3064 33.1362 55.2864ZM14.9362 84.1364C10.5062 84.5964 6.53622 81.3664 6.07622 76.9164C5.61622 72.4864 8.84622 68.5164 13.2962 68.0564C17.7062 67.5964 21.6962 70.8464 22.1562 75.2764C22.6162 79.6964 19.3662 83.6764 14.9362 84.1364ZM18.1062 91.1364L13.5562 92.6764C17.9862 105.826 22.4862 124.006 18.7862 135.926L23.3862 137.346C27.4762 124.206 22.7862 104.966 18.1062 91.1364Z" fill="#AB8E6C"/>
</svg>
